<?xml version="1.0" encoding="utf-8"?><!DOCTYPE svg PUBLIC "-//W3C//DTD SVG 1.1//EN" "http://www.w3.org/Graphics/SVG/1.1/DTD/svg11.dtd"><svg version="1.1" id="Layer_1" xmlns="http://www.w3.org/2000/svg" xmlns:xlink="http://www.w3.org/1999/xlink" x="0px" y="0px" width="864px" height="696px" viewBox="0 0 864 696" enable-background="new 0 0 864 696" xml:space="preserve"><path fill="#9A6766" d="M0,120.563h864v484H0V120.563z"/><circle fill="#8F5F5F" cx="432.311" cy="433.006" r="176.998"/><path fill="#B06A65" d="M544.805,397.088c-49.472,0-92.317,15.769-113.194,38.76c-21.354-22.174-63.404-37.26-111.793-37.26c-70,0-126.744,31.563-126.744,70.496s56.745,70.496,126.744,70.496c49.473,0,92.318-15.768,113.195-38.758c21.355,22.174,63.404,37.258,111.793,37.258c70,0,126.744-31.563,126.744-70.496S614.803,397.088,544.805,397.088L544.805,397.088z"/><path fill="#9A6766" d="M397.31,329.524c0-19.88,16.118-102.5,36-102.5c19.884,0,36,82.618,36,102.5c0,19.882-16.116,36-36,36C413.428,365.523,397.31,349.406,397.31,329.524z"/><path fill="#E0ADA6" d="M0,542.758V682.25h864V542.758H0z"/><path fill="#DC717E" d="M0,617.527V696h864v-78.496c-97.146,13.135-254.497,21.67-432.088,21.67C254.429,639.174,97.158,630.648,0,617.527L0,617.527z"/><path fill="#E0ADA6" d="M432.086,64.558C254.496,64.558,97.146,75.124,0,91.382v76.652c14.58,2.44,30.52,4.75,47.676,6.918h768.822c17.087-2.16,32.97-4.46,47.502-6.89v-76.71C766.842,75.113,609.57,64.56,432.086,64.56V64.558z"/><path fill="#D26C79" d="M494.076,65.355c-5.695,15.657-30.512,27.442-60.269,27.442c-29.782,0-54.616-11.807-60.283-27.484c19.277-0.244,38.86-0.37,58.7-0.37C453.145,64.943,473.783,65.083,494.076,65.355L494.076,65.355z"/><path fill="#DC717E" d="M864,0v92.15C766.714,76.56,610.886,45,434.503,45C257.922,45,97.312,50.49,0,65.767V0H864z"/><path fill="#D26C79" d="M863.938,92.127v0.337C778.274,77.856,645.77,67.762,493.865,65.586c0,0.002,0,0.004-0.002,0.005c-20.285-0.29-40.913-0.44-61.825-0.44c-19.83,0-39.404,0.135-58.673,0.396c0,0,0-0.003-0.002-0.005C220.24,67.62,86.573,77.743,0.31,92.436V63.892c97.27-16.35,257.81-22.225,434.314-22.225C610.93,41.667,766.691,75.445,863.938,92.127z"/><path fill="#CCCCCC" d="M814.365,170.337h15.002v0.05h-15.002V170.337z M837.7,222.186l15-0.03l-0.002-0.272h-15L837.7,222.186z M852.596,170.34l-15,0.032v0.013h15V170.34z"/><path fill="#FFFFFF" d="M151.55,141.667h-24.91c-21.63,0-39.328,18.332-39.328,40.738v55.258c0,22.406,17.697,40.74,39.328,40.74h24.913c21.63,0,39.33-18.334,39.33-40.74v-55.258c0-22.406-17.7-40.738-39.33-40.738H151.55z M735.826,143.245h-24.912c-21.63,0-39.33,18.332-39.33,40.74v53.68c0,22.405,17.7,40.738,39.33,40.738h24.912c21.63,0,39.328-18.333,39.328-40.74v-53.68C775.154,161.577,757.457,143.245,735.826,143.245z M400.524,141.667h-60.918c-15.08,0-27.416,12.78-27.416,28.4v97.807c0,15.62,12.337,28.4,27.416,28.4h60.918c15.079,0,27.415-12.78,27.415-28.4v-97.808C427.939,154.446,415.604,141.666,400.524,141.667L400.524,141.667z M522.102,141.667h-60.918c-15.077,0-27.416,12.78-27.416,28.4v97.807c0,15.62,12.339,28.4,27.416,28.4h60.918c15.08,0,27.416-12.78,27.416-28.4v-97.808C549.518,154.446,537.182,141.666,522.102,141.667L522.102,141.667z M280.365,142.193h-57.207c-14.16,0-25.745,12-25.745,26.668v88.823c0,14.668,11.585,26.67,25.745,26.67h57.207c14.16,0,25.745-12.002,25.745-26.67V168.86C306.11,154.193,294.524,142.193,280.365,142.193z M638.918,142.018h-57.205c-14.16,0-25.746,12-25.746,26.668v88.998c0,14.668,11.586,26.67,25.746,26.67h57.205c14.16,0,25.746-12.002,25.746-26.67v-88.998C664.664,154.019,653.078,142.018,638.918,142.018z M864,193.456v-46.83c-0.954-0.483-1.93-0.923-2.924-1.322c-4.16-1.625-8.655-2.52-13.346-2.52h-27.396c-4.69,0-9.188,0.895-13.347,2.52c-14.415,5.777-24.74,20.605-24.74,37.876v46.903c0,22.254,17.138,40.462,38.087,40.462h27.396c5.812,0,11.327-1.406,16.27-3.907V238.94c-0.1,0.074-0.208,0.14-0.31,0.21v-45.904C863.792,193.316,863.9,193.382,864,193.456z M54.443,145.302c-2.272-0.798-4.637-1.378-7.075-1.718h-5.113c-20.947,0-38.086,18.208-38.086,40.462v5.017H1.355v53.333h4.526c4.244,14.534,16.015,25.637,30.428,28.064H14.255c-1.286,0-2.558-0.07-3.813-0.205c1.465,0.184,2.95,0.29,4.46,0.29H42.3c20.947,0,38.086-18.21,38.086-40.462V183.63C80.386,165.883,69.481,150.72,54.443,145.302z"/><path fill="#F2F2F2" d="M112.69,238.164v-55.258c0-22.406,17.698-40.738,39.33-40.738h5.366c-1.996-0.327-4.04-0.5-6.12-0.5H126.35c-21.63,0-39.328,18.332-39.328,40.738v55.258c0,22.406,17.697,40.74,39.328,40.74h19.545C127.145,275.334,112.689,258.414,112.69,238.164L112.69,238.164z M696.965,238.086v-53.68c0-22.407,17.7-40.74,39.33-40.74h5.367c-1.996-0.326-4.04-0.5-6.12-0.5h-24.913c-21.632,0-39.33,18.333-39.33,40.74v53.68c0,22.406,17.698,40.74,39.33,40.74h19.544c-18.75-3.07-33.21-19.99-33.21-40.24H696.965z M341.334,267.874v-97.808c0-15.62,12.337-28.4,27.416-28.4h-28.667c-15.08,0-27.416,12.78-27.416,28.4v97.808c0,15.62,12.337,28.4,27.416,28.4h28.667C353.67,296.274,341.334,283.494,341.334,267.874L341.334,267.874z M462.912,267.874v-97.808c0-15.62,12.336-28.4,27.416-28.4H461.66c-5.96,0-11.486,2.003-15.996,5.382c-6.902,5.17-11.42,13.57-11.42,23.018v97.808c0,9.446,4.518,17.848,11.42,23.02c4.51,3.377,10.037,5.38,15.996,5.38h28.668C475.248,296.274,462.912,283.494,462.912,267.874L462.912,267.874z M223.578,257.658v-88.822c0-14.668,11.585-26.668,25.745-26.668h-26.5c-14.16,0-25.745,12-25.745,26.668v88.822c0,14.668,11.585,26.67,25.745,26.67h26.5C235.163,284.328,223.578,272.326,223.578,257.658z M582.13,257.625v-88.998c0-14.667,11.587-26.668,25.747-26.668h-26.5c-14.16,0-25.746,12-25.746,26.667v88.998c0,14.668,11.587,26.67,25.747,26.67h26.5c-14.16-0.002-25.746-12.003-25.746-26.67L582.13,257.625z M3.367,205.948v20.5c0,0.69,0.316,1.33,0.802,1.79v-24.08C3.683,204.618,3.367,205.258,3.367,205.948L3.367,205.948z M5.737,241.941c-2.03-0.02-3.965-0.432-5.736-1.158v26.515c3.275,1.49,6.783,2.5,10.443,2.96c1.255,0.133,2.526,0.204,3.813,0.204H36.31C21.745,268.01,9.865,256.7,5.737,241.941L5.737,241.941z M42.3,143.22H14.903c-4.242,0-8.324,0.74-12.143,2.082c-0.935,0.337-1.858,0.704-2.76,1.114v45.2c1.31-0.538,2.707-0.904,4.168-1.066v-6.504c0-22.254,17.14-40.462,38.086-40.462h5.113C45.707,143.352,44.019,143.221,42.3,143.22L42.3,143.22z M809.473,230.28v-46.9c0-22.253,17.141-40.46,38.088-40.46h5.344c-1.938-0.327-3.924-0.5-5.945-0.5h-27.396c-20.95,0-38.089,18.207-38.089,40.46v46.903c0,22.255,17.141,40.463,38.089,40.463h22.055c-18.152-3.056-32.145-19.855-32.145-39.962L809.473,230.28z"/><path fill="#DF9B9D" d="M151.55,100.71h-24.91c-21.63,0-39.328,18.333-39.328,40.74v41.02c0-22.406,17.697-40.738,39.328-40.738h24.913c21.63,0,39.33,18.332,39.33,40.738v-41.02c0-22.407-17.7-40.74-39.33-40.74H151.55z M735.826,100.71h-24.912c-21.63,0-39.33,18.333-39.33,40.74v42.598c0-22.407,17.7-40.74,39.33-40.74h24.912c21.63,0,39.328,18.333,39.328,40.74v-42.6C775.154,119.043,757.457,100.711,735.826,100.71L735.826,100.71z M400.524,100.71h-60.918c-15.08,0-27.416,12.78-27.416,28.4v41.02c0-15.62,12.337-28.4,27.416-28.4h60.918c15.079,0,27.415,12.78,27.415,28.4v-41.02C427.939,113.49,415.604,100.71,400.524,100.71L400.524,100.71z M522.102,100.71h-60.918c-15.077,0-27.416,12.78-27.416,28.4v41.02c0-15.62,12.339-28.4,27.416-28.4h60.918c15.08,0,27.416,12.78,27.416,28.4v-41.02C549.518,113.49,537.182,100.71,522.102,100.71L522.102,100.71z M280.365,100.71h-57.207c-14.16,0-25.745,12-25.745,26.67v41.545c0-14.668,11.585-26.668,25.745-26.668h57.207c14.16,0,25.745,12,25.745,26.668V127.38C306.11,112.71,294.524,100.71,280.365,100.71z M638.918,100.71h-57.205c-14.16,0-25.746,12-25.746,26.67v41.37c0-14.667,11.586-26.668,25.746-26.668h57.205c14.16,0,25.746,12,25.746,26.668v-41.37C664.664,112.71,653.078,100.71,638.918,100.71z M80.386,182.674v-42.51c0-21.7-17.14-39.453-38.086-39.453H14.903c-5.28,0-10.32,1.132-14.903,3.168v42.174c4.41-1.907,9.22-2.968,14.255-2.968h27.397c1.637,0,3.25,0.12,4.833,0.336c2.75,0.323,5.412,0.965,7.958,1.882C69.481,150.586,80.386,165.371,80.386,182.674L80.386,182.674z M847.664,144.797c4.71,0,9.224,0.92,13.4,2.585c0.998,0.39,1.978,0.818,2.936,1.29v-42.073c-4.962-2.44-10.5-3.81-16.336-3.81h-27.51c-21.033,0-38.242,17.753-38.242,39.45v42.074c0-16.84,10.368-31.298,24.842-36.932c4.177-1.667,8.692-2.585,13.4-2.585L847.664,144.797L847.664,144.797z"/><path fill="#999999" d="M1.118,222.172V210.17H864v12.002H1.118z"/><path fill="#EE2A7B" d="M349.368,241.802c-8.57-0.025-15.476-6.932-15.5-15.5v-20.5c0.024-8.568,6.93-15.475,15.5-15.5h42.5c8.566,0.025,15.474,6.932,15.498,15.5v20.5h0.002c-0.026,8.57-6.934,15.476-15.5,15.5H349.368z M346.868,205.802v20.5c0,1.332,1.167,2.5,2.5,2.5h42.5c1.33-0.002,2.495-1.168,2.497-2.5h0.002l-0.002-20.5c-0.002-1.33-1.166-2.497-2.498-2.5h-42.5C348.037,203.305,346.87,204.472,346.868,205.802L346.868,205.802z"/><path fill="#CCCCCC" d="M351.368,241.754v-51.5h15v51.5H351.368z M374.597,190.29l15-0.03l0.103,51.812l-15,0.03L374.597,190.29L374.597,190.29z"/><path fill="#77C9B4" d="M456.535,226.303l-0.002-20.5c0.026-8.57,6.934-15.477,15.502-15.5h42.5c8.565,0.024,15.473,6.93,15.498,15.5v20.5h0.002c-0.027,8.566-6.935,15.475-15.5,15.498l-42.5,0.003c-8.568-0.025-15.475-6.933-15.5-15.5V226.303z M469.531,205.803l0.005,20.5c0.002,1.33,1.166,2.496,2.5,2.498h42.5c1.33,0,2.496-1.166,2.498-2.497v-20.5c-0.002-1.333-1.168-2.498-2.498-2.502h-42.5c-1.334,0.006-2.498,1.17-2.504,2.502L469.531,205.803z"/><path fill="#CCCCCC" d="M474.033,241.754v-51.5h15.002v51.5H474.033z M497.264,190.29l15-0.03l0.104,51.812l-15,0.03L497.264,190.29L497.264,190.29z"/><path fill="#ED2024" d="M573.867,226.303l-0.002-20.5c0.024-8.57,6.934-15.477,15.502-15.5l42.5-0.002c8.564,0.026,15.473,6.934,15.498,15.503v20.5h0.003c-0.028,8.568-6.937,15.475-15.5,15.498l-42.5,0.003c-8.57-0.025-15.478-6.932-15.5-15.5L573.867,226.303z M589.367,203.303c-1.332,0.002-2.498,1.167-2.502,2.5l0.002,20.5c0.002,1.332,1.168,2.496,2.5,2.5l42.5-0.002c1.332,0,2.496-1.166,2.498-2.497h0.002l-0.002-20.5c-0.002-1.333-1.166-2.498-2.498-2.502l-42.5,0.003V203.303z"/><path fill="#CCCCCC" d="M591.367,241.753v-51.5h15v51.5H591.367z M614.598,190.29l14.997-0.03l0.104,51.812l-15,0.03L614.598,190.29L614.598,190.29z"/><path fill="#98CA3C" d="M687.866,226.303v-20.5c0.023-8.568,6.933-15.475,15.5-15.5h42.5c8.567,0.025,15.476,6.932,15.5,15.5v20.5c-0.024,8.568-6.933,15.475-15.5,15.5h-42.5C694.799,241.778,687.891,234.871,687.866,226.303z M700.866,205.803l0.002,20.5c0,1.332,1.165,2.498,2.5,2.5h42.5c1.33-0.002,2.496-1.167,2.498-2.5v-20.5c-0.002-1.333-1.167-2.498-2.5-2.5h-42.5C702.033,203.305,700.868,204.47,700.866,205.803z"/><path fill="#CCCCCC" d="M705.367,241.753v-51.5h15v51.5H705.367z M728.596,190.29l15-0.03l0.104,51.813l-15,0.028L728.596,190.29L728.596,190.29z"/><path fill="#FFCD05" d="M232.367,241.802c-8.568-0.024-15.475-6.933-15.5-15.5v-20.5c0.025-8.568,6.932-15.475,15.5-15.5h42.5c8.57,0.025,15.475,6.932,15.5,15.5v20.5c-0.024,8.567-6.93,15.476-15.5,15.5H232.367z M229.867,205.802v20.5c0.003,1.333,1.168,2.497,2.5,2.5h42.502c1.33-0.003,2.496-1.166,2.498-2.5v-20.5c-0.002-1.332-1.167-2.498-2.5-2.5h-42.5C231.034,203.305,229.869,204.47,229.867,205.802z"/><path fill="#CCCCCC" d="M234.368,241.755v-51.5h15v51.5H234.368z M257.596,190.288l15-0.028l0.104,51.813l-14.998,0.028L257.596,190.288L257.596,190.288z"/><path fill="#6799CB" d="M118.868,241.802c-8.568-0.024-15.477-6.933-15.5-15.5v-20.5c0.023-8.568,6.932-15.475,15.5-15.5h42.5c8.566,0.025,15.475,6.932,15.5,15.5v20.5c-0.025,8.567-6.934,15.476-15.5,15.5H118.868z M116.366,205.802l0.002,20.5c0.002,1.333,1.167,2.497,2.5,2.5h42.5c1.332-0.003,2.496-1.166,2.5-2.5v-20.5c-0.004-1.332-1.167-2.498-2.5-2.5h-42.5C117.536,203.305,116.37,204.47,116.366,205.802z"/><path fill="#CCCCCC" d="M144.097,190.288l15-0.028l0.103,51.813l-14.998,0.028L144.097,190.288L144.097,190.288z M120.206,190.112l15-0.03l0.103,51.814l-15,0.03L120.206,190.112L120.206,190.112z"/><path fill="#673695" d="M63.866,226.303v-20.5c-0.024-8.57-6.93-15.476-15.5-15.502l-42.5,0.003c-0.573,0-1.14,0.04-1.697,0.1c-1.462,0.163-2.86,0.53-4.17,1.066v49.166c1.772,0.727,3.707,1.137,5.738,1.16c0.043,0,0.085,0.006,0.13,0.006h42.5C56.934,241.778,63.841,234.869,63.866,226.303L63.866,226.303L63.866,226.303z M50.866,226.303c0,1.332-1.166,2.496-2.5,2.5h-42.5c-0.643-0.002-1.243-0.278-1.697-0.71c-0.486-0.46-0.802-1.1-0.803-1.79v-20.5c0-0.69,0.316-1.33,0.802-1.79c0.453-0.432,1.053-0.71,1.697-0.71h42.5c1.332,0.003,2.498,1.168,2.5,2.5L50.866,226.303L50.866,226.303z"/><path fill="#CCCCCC" d="M7.868,241.755v-51.5h15v51.5H7.868z M31.097,190.288l15-0.028l0.104,51.813l-15,0.028L31.097,190.288L31.097,190.288z"/><path fill="#F6EB14" d="M854.866,190.3h-2.271l0.025,13h2.245c1.332,0.003,2.497,1.168,2.5,2.502V226.3c-0.003,1.334-1.168,2.497-2.5,2.5h-2.193l0.025,13h2.168c3.425-0.01,6.573-1.132,9.134-3.007V193.31C861.44,191.435,858.29,190.312,854.866,190.3L854.866,190.3z M829.366,228.803v12.95h-15v-12.95h-2c-1.33-0.004-2.497-1.167-2.5-2.5v-20.5c0.003-1.333,1.17-2.498,2.5-2.5h2v-13h-2c-8.567,0.025-15.477,6.93-15.5,15.5v20.5c0.023,8.57,6.933,15.475,15.5,15.5H837.7l-0.026-13H829.366L829.366,228.803z M837.596,190.303h-8.228v13h8.256L837.596,190.303L837.596,190.303z"/><path fill="#CCCCCC" d="M814.365,190.303v51.45h15.002v-51.45H814.365z M852.673,228.803l-0.05-25.5l-0.027-13.002l-15,0.002l0.027,13l0.05,25.5l0.026,13h14.998L852.673,228.803z"/><path fill="#FFFFFF" d="M205.956,445.615H179.62c-19.55,0-35.544,16.844-35.544,37.43v44.14c0,20.587,15.994,37.431,35.543,37.431h26.336c19.55,0,35.543-16.844,35.543-37.431v-44.14c0-20.586-15.996-37.43-35.544-37.43H205.956z M684.63,445.615h-26.336c-19.55,0-35.543,16.844-35.543,37.43v44.14c0,20.587,15.995,37.431,35.544,37.431h26.336c19.55,0,35.543-16.844,35.543-37.431v-44.14C720.174,462.459,704.18,445.615,684.63,445.615L684.63,445.615z M101.234,442.115h-23.94c-20.133,0-36.606,16.473-36.606,36.606v49.285c0,20.133,16.473,36.607,36.607,36.607h23.94c20.133,0,36.606-16.476,36.606-36.607v-49.285C137.843,458.588,121.371,442.115,101.234,442.115L101.234,442.115z M0,443.31v122.11c18.382-1.9,32.84-17.55,32.84-36.412v-49.285C32.843,460.86,18.384,445.21,0,443.31z M786.207,442.115H762.27c-20.135,0-36.607,16.473-36.607,36.606v49.285c0,20.133,16.474,36.607,36.606,36.607h23.938c20.134,0,36.606-16.476,36.606-36.607v-49.285C822.812,458.588,806.34,442.115,786.207,442.115L786.207,442.115z M407.874,459.62h-46.51c-11.344,0-20.626,9.282-20.626,20.628v63.74c0,11.344,9.282,20.627,20.626,20.627h46.51c11.344,0,20.626-9.283,20.626-20.627v-63.74C428.5,468.902,419.218,459.621,407.874,459.62L407.874,459.62z M313.357,452.312h-46.51c-11.344,0-20.626,9.929-20.626,22.063v68.176c0,12.136,9.283,22.064,20.627,22.064h46.51c11.344,0,20.626-9.931,20.626-22.064v-68.176C333.984,462.24,324.702,452.313,313.357,452.312L313.357,452.312z M596.906,451.62h-46.51c-11.345,0-20.628,9.99-20.628,22.2v68.596c0,12.21,9.282,22.2,20.626,22.2h46.511c11.344,0,20.627-9.99,20.627-22.2V473.82C617.532,461.61,608.249,451.62,596.906,451.62L596.906,451.62z M502.39,459.62h-46.51c-11.343,0-20.626,9.282-20.626,20.628v63.74c0,11.344,9.283,20.627,20.627,20.627h46.51c11.346,0,20.629-9.283,20.629-20.627v-63.74c0-11.346-9.284-20.627-20.628-20.627L502.39,459.62z M864,565.57V443.16c-19.33,0.92-34.857,17.016-34.857,36.562v49.285C829.143,548.555,844.671,564.648,864,565.57z"/><path fill="#DF9B9D" d="M205.956,564.615H179.62c-19.55,0-35.544-15.994-35.544-35.543v36c0,19.55,15.994,35.543,35.543,35.543h26.336c19.55,0,35.543-15.994,35.543-35.543v-36c0,19.55-15.996,35.543-35.544,35.543H205.956z M684.63,564.615h-26.336c-19.55,0-35.543-15.994-35.543-35.543v36c0,19.55,15.995,35.543,35.544,35.543h26.336c19.55,0,35.543-15.994,35.543-35.543v-36C720.174,548.622,704.18,564.615,684.63,564.615L684.63,564.615z M101.234,564.615h-23.94c-20.133,0-36.606-16.476-36.606-36.607v36c0,20.133,16.473,36.607,36.607,36.607h23.94c20.133,0,36.606-16.476,36.606-36.607v-36C137.843,548.141,121.371,564.615,101.234,564.615L101.234,564.615z M786.207,564.615H762.27c-20.135,0-36.607-16.476-36.607-36.607v36c0,20.133,16.474,36.607,36.606,36.607h23.938c20.134,0,36.606-16.476,36.606-36.607v-36C822.812,548.141,806.34,564.615,786.207,564.615L786.207,564.615z M407.874,564.615h-46.51c-11.344,0-20.626-9.283-20.626-20.627v36c0,11.344,9.282,20.627,20.626,20.627h46.51c11.344,0,20.626-9.283,20.626-20.627v-36C428.5,555.332,419.218,564.615,407.874,564.615z M313.357,564.615h-46.51c-11.344,0-20.626-9.283-20.626-20.627v36c0,11.344,9.283,20.627,20.627,20.627h46.51c11.344,0,20.626-9.283,20.626-20.627v-36C333.984,555.332,324.702,564.615,313.357,564.615L313.357,564.615z M596.906,564.615h-46.51c-11.345,0-20.628-9.283-20.628-20.627v36c0,11.344,9.282,20.627,20.626,20.627h46.511c11.344,0,20.627-9.283,20.627-20.627v-36C617.532,555.332,608.249,564.615,596.906,564.615L596.906,564.615z M502.39,564.615h-46.51c-11.343,0-20.626-9.283-20.626-20.627v36c0,11.344,9.283,20.627,20.627,20.627h46.51c11.346,0,20.629-9.283,20.629-20.627v-36c0,11.344-9.284,20.627-20.628,20.627H502.39z M0,565.42v36c18.382-1.9,32.84-17.55,32.84-36.412v-36C32.842,547.868,18.383,563.52,0,565.42z M829.143,529.008v36c0,19.547,15.528,35.641,34.857,36.563v-36C844.67,564.649,829.143,548.556,829.143,529.008L829.143,529.008z"/><path fill="#F2F2F2" d="M165.496,527.27v-44.138c0-20.588,15.994-37.432,35.543-37.432h8.87c-1.324-0.158-2.67-0.25-4.033-0.25H179.54c-19.55,0-35.543,16.844-35.543,37.432v44.141c0,20.585,15.994,37.43,35.543,37.43h17.465c-17.667-2.128-31.51-18.03-31.51-37.18L165.496,527.27z M644.172,527.27v-44.138c0-20.588,15.994-37.432,35.543-37.432h8.87c-1.325-0.158-2.67-0.25-4.034-0.25h-26.335c-19.55,0-35.543,16.844-35.543,37.432v44.141c0,20.585,15.994,37.43,35.543,37.43h17.467c-17.668-2.128-31.51-18.03-31.51-37.18L644.172,527.27z M62.025,527.928v-49.285c0-20.135,16.473-36.606,36.607-36.606H77.3c-20.135,0-36.608,16.473-36.608,36.606v49.285c0,20.133,16.473,36.607,36.607,36.607H98.63c-20.134,0-36.607-16.475-36.607-36.607H62.025z M747,527.928v-49.285c0-20.135,16.472-36.606,36.606-36.606h-21.334c-20.136,0-36.607,16.473-36.607,36.606v49.285c0,20.133,16.473,36.607,36.607,36.607h21.334C763.472,564.535,746.999,548.061,747,527.928L747,527.928z M270.89,542.803v-68.176c0-12.135,9.283-22.062,20.627-22.062h24.934c-1.008-0.164-2.04-0.25-3.09-0.25h-46.51c-11.344,0-20.626,9.928-20.626,22.062v68.176c0,12.135,9.282,22.064,20.626,22.064h21.576c-9.89-1.607-17.535-10.803-17.535-21.814H270.89z M554.44,542.668v-68.596c0-12.21,9.281-22.2,20.626-22.2h24.924c-1.006-0.163-2.035-0.25-3.08-0.25H550.4c-11.345,0-20.627,9.99-20.627,22.2v68.596c0,12.21,9.282,22.2,20.627,22.2h21.586C562.09,563.004,554.439,553.752,554.44,542.668L554.44,542.668z M364.95,544.045v-63.74c0-11.344,9.28-20.627,20.625-20.627H361.2c-11.344,0-20.626,9.283-20.626,20.627v63.74c0,11.346,9.282,20.627,20.626,20.627h24.375C374.231,564.672,364.949,555.392,364.95,544.045L364.95,544.045z M459.465,544.045v-63.74c0-11.344,9.283-20.627,20.627-20.627h-24.375c-4.39,0-8.46,1.402-11.813,3.765c-5.314,3.739-8.813,9.907-8.813,16.862v63.74c0,6.955,3.498,13.123,8.813,16.865c3.354,2.359,7.426,3.762,11.813,3.762h24.375C468.748,564.672,459.465,555.392,459.465,544.045z M849.31,529.008v-49.285c0-11.932,5.787-22.575,14.69-29.27v-7.307c-19.56,0.665-35.356,16.859-35.356,36.575v49.285c0,19.713,15.799,35.908,35.356,36.574v-7.304C855.097,551.583,849.31,540.938,849.31,529.008L849.31,529.008z"/><path fill="#999999" d="M0,516.89v-12h864v12H0z"/><path fill="#333366" d="M266.83,532.598c-7.247-0.02-13.088-5.859-13.11-13.106v-17.335c0.022-7.248,5.863-13.088,13.11-13.11h35.944c7.246,0.022,13.087,5.862,13.108,13.11v17.336c-0.02,7.247-5.862,13.09-13.108,13.107H266.83V532.598z M264.715,502.154v17.336c0.002,1.127,0.988,2.109,2.116,2.113h35.944c1.125-0.003,2.11-0.986,2.114-2.113v-17.336c-0.002-1.127-0.988-2.113-2.114-2.115H266.83C265.703,500.039,264.717,501.026,264.715,502.154L264.715,502.154z"/><path fill="#CCCCCC" d="M268.52,532.56v-43.556h12.688v43.557L268.52,532.56L268.52,532.56z M288.167,489.033l12.687-0.025l0.086,43.818l-12.685,0.027L288.167,489.033L288.167,489.033z"/><path fill="#F26667" d="M361.83,532.598c-7.246-0.02-13.09-5.859-13.11-13.106v-17.335c0.02-7.248,5.864-13.088,13.11-13.11h35.944c7.245,0.022,13.09,5.862,13.106,13.11v17.336c-0.018,7.247-5.859,13.09-13.105,13.107H361.83V532.598z M359.714,502.154v17.336c0.002,1.127,0.988,2.109,2.115,2.113h35.942c1.128-0.003,2.11-0.986,2.113-2.113v-17.336c-0.002-1.127-0.985-2.113-2.113-2.115H361.83C360.703,500.039,359.716,501.026,359.714,502.154L359.714,502.154z"/><path fill="#CCCCCC" d="M363.52,532.56v-43.556h12.686v43.557L363.52,532.56L363.52,532.56z M383.167,489.033l12.687-0.025l0.085,43.818l-12.685,0.027L383.167,489.033L383.167,489.033z"/><path fill="#EFCEE2" d="M66.346,532.598c-7.248-0.02-13.09-5.859-13.11-13.106v-17.335c0.02-7.248,5.862-13.088,13.11-13.11h35.943c7.245,0.022,13.086,5.862,13.107,13.11v17.336c-0.02,7.247-5.862,13.09-13.108,13.107H66.345L66.346,532.598z M64.23,502.154v17.336c0.002,1.127,0.988,2.109,2.116,2.113h35.943c1.124-0.003,2.11-0.986,2.112-2.113v-17.336c-0.002-1.127-0.988-2.113-2.113-2.115H66.345C65.217,500.039,64.231,501.026,64.23,502.154L64.23,502.154z"/><path fill="#CCCCCC" d="M68.035,532.56v-43.556H80.72v43.557L68.035,532.56L68.035,532.56z M87.683,489.033l12.684-0.025l0.09,43.818l-12.688,0.027L87.683,489.033L87.683,489.033z"/><path fill="#38C0C4" d="M456.828,532.598c-7.246-0.018-13.088-5.859-13.11-13.106v-17.335c0.022-7.248,5.864-13.088,13.11-13.11h35.945c7.246,0.022,13.088,5.862,13.109,13.11v17.336c-0.021,7.247-5.864,13.09-13.109,13.107h-35.945V532.598z M454.715,502.154v17.336c0.002,1.127,0.986,2.109,2.113,2.113h35.945c1.127-0.003,2.109-0.986,2.112-2.113v-17.336c-0.002-1.127-0.985-2.113-2.112-2.115h-35.945C455.701,500.039,454.718,501.026,454.715,502.154L454.715,502.154z"/><path fill="#CCCCCC" d="M458.52,532.56v-43.556h12.688v43.557L458.52,532.56L458.52,532.56z M478.166,489.033l12.688-0.025l0.086,43.818l-12.687,0.027L478.166,489.033L478.166,489.033z"/><path fill="#AB4D9D" d="M549.496,532.598c-7.248-0.018-13.09-5.859-13.11-13.106v-17.335c0.021-7.248,5.862-13.088,13.11-13.11h35.943c7.244,0.022,13.087,5.862,13.107,13.11v17.336c-0.02,7.247-5.863,13.09-13.11,13.107h-35.941L549.496,532.598z M547.383,502.154v17.336c0,1.127,0.984,2.109,2.113,2.113h35.943c1.125-0.003,2.109-0.986,2.111-2.113v-17.336c-0.002-1.127-0.986-2.113-2.113-2.115h-35.943c-1.13,0-2.113,0.987-2.113,2.114L547.383,502.154z"/><path fill="#CCCCCC" d="M551.188,532.56v-43.556h12.686v43.557L551.188,532.56L551.188,532.56z M570.832,489.033l12.688-0.025l0.088,43.818l-12.688,0.027L570.832,489.033L570.832,489.033z"/><path fill="#9A6766" d="M649.826,532.598c-7.246-0.018-13.087-5.859-13.108-13.104v-17.34c0.021-7.246,5.862-13.088,13.108-13.11h35.945c7.246,0.022,13.089,5.864,13.11,13.11v17.34c-0.021,7.246-5.864,13.088-13.11,13.104H649.826z M647.713,502.152v17.34c0.002,1.125,0.99,2.109,2.113,2.109h35.945c1.125,0,2.112-0.984,2.112-2.109v-17.34c0-1.127-0.987-2.11-2.112-2.113h-35.945C648.702,500.039,647.716,501.024,647.713,502.152L647.713,502.152z"/><path fill="#CCCCCC" d="M651.52,532.56v-43.556h12.685v43.555L651.52,532.56L651.52,532.56z M671.164,489.033l12.688-0.025l0.086,43.82l-12.685,0.025L671.164,489.033L671.164,489.033z"/><path fill="#CCCC64" d="M752.828,532.6c-7.247-0.02-13.088-5.862-13.11-13.109v-17.337c0.022-7.246,5.863-13.088,13.11-13.107h35.943c7.246,0.021,13.09,5.86,13.109,13.107v17.338c-0.02,7.247-5.863,13.09-13.109,13.109H752.83L752.828,532.6z M750.714,502.152v17.338c0.002,1.13,0.986,2.109,2.114,2.112h35.943c1.13-0.002,2.111-0.983,2.113-2.112v-17.338c-0.002-1.125-0.984-2.11-2.112-2.113H752.83c-1.128,0-2.112,0.987-2.114,2.112L750.714,502.152z"/><path fill="#CCCCCC" d="M754.52,532.56V489h12.686v43.557H754.52V532.56z M774.164,489.035l12.689-0.027l0.087,43.818l-12.688,0.027L774.164,489.035L774.164,489.035z"/><path fill="#6EBE44" d="M169.86,532.598c-7.25-0.02-13.09-5.859-13.11-13.106v-17.335c0.02-7.248,5.86-13.088,13.11-13.11h35.94c7.246,0.022,13.09,5.862,13.11,13.11v17.336c-0.02,7.247-5.864,13.09-13.11,13.107h-35.94V532.598z M167.744,502.154v17.336c0.002,1.127,0.988,2.109,2.116,2.113h35.94c1.128-0.003,2.114-0.986,2.116-2.113v-17.336c-0.002-1.127-0.988-2.113-2.115-2.115h-35.94C168.733,500.039,167.747,501.026,167.744,502.154L167.744,502.154z"/><path fill="#CCCCCC" d="M171.548,532.56v-43.556h12.686v43.557L171.548,532.56L171.548,532.56z M191.195,489.033l12.687-0.025l0.086,43.818l-12.685,0.027L191.195,489.033L191.195,489.033z"/><path fill="#CE6A77" d="M863.997,594.713c-96.847,13.135-255.73,30.918-432.738,30.918c-157.757,0-299.49,4.729-397.015-3.548c97.524,10.771,239.258,17.55,397.014,17.55c177.035,0,333.896-8.536,430.74-21.673l1.997-0.376v-22.87L863.997,594.713z"/></svg>