<?xml version="1.0" encoding="utf-8"?>
<!-- Generator: Adobe Illustrator 16.0.3, SVG Export Plug-In . SVG Version: 6.00 Build 0)  -->
<!DOCTYPE svg PUBLIC "-//W3C//DTD SVG 1.1//EN" "http://www.w3.org/Graphics/SVG/1.1/DTD/svg11.dtd">
<svg version="1.1" id="Layer_1" xmlns="http://www.w3.org/2000/svg" xmlns:xlink="http://www.w3.org/1999/xlink" x="0px" y="0px"
	 width="121.891px" height="121.891px" viewBox="0 0 121.891 121.891" enable-background="new 0 0 121.891 121.891"
	 xml:space="preserve">
<g>
	<path fill="#592E84" d="M60.946,118.722c31.823,0,57.776-25.954,57.776-57.777c0-31.821-25.953-57.775-57.776-57.775
		c-31.82,0-57.775,25.954-57.775,57.775C3.169,92.768,29.124,118.722,60.946,118.722z"/>
	<path fill="#FAF5DC" d="M60.945,72.934c-0.66,1.465-2.139,2.489-3.844,2.489H42.624c-1.896,0-3.505-1.265-4.032-2.99
		c-0.693,0.971-1.829,1.604-3.105,1.604h-7.832c-3.662,0.008-6.756-3.906-7.619-8.29c1.701,0.25,3.428,0.482,5.173,0.698
		c0.04,1.074,0.893,1.974,1.985,2.047l3.748,0.248c0.979,0.063,1.854-0.552,2.156-1.439c1.787,0.166,3.59,0.316,5.403,0.449
		l0.069,0.005l0.033,0.003l0.064,0.006l0.041,0.003l0.055,0.004l0.05,0.003l0.048,0.004l0.059,0.005l0.04,0.003l0.063,0.005
		l0.031,0.002l0.074,0.006l0.021,0.001l0.083,0.007l0.016,0.001c1.992,0.141,3.996,0.263,6.012,0.363
		c0.156,0.991,1.004,1.769,2.041,1.798l4.887,0.146c1.02,0.029,1.896-0.668,2.131-1.618c2.102,0.044,4.204,0.065,6.31,0.067h0.007
		l0.104,0.001h0.104h0.104h0.104h0.104l0.104-0.001h0.007c2.104-0.002,4.208-0.023,6.31-0.067c0.234,0.95,1.111,1.647,2.131,1.618
		l4.887-0.146c1.037-0.029,1.885-0.807,2.042-1.798c2.015-0.103,4.019-0.224,6.011-0.363l0.017-0.001l0.082-0.007l0.021-0.001
		l0.074-0.006l0.031-0.002l0.064-0.005l0.039-0.003l0.059-0.005l0.049-0.004l0.049-0.003l0.056-0.004l0.04-0.003l0.064-0.006
		l0.031-0.003l0.072-0.005c1.813-0.133,3.615-0.283,5.402-0.449c0.305,0.89,1.178,1.505,2.157,1.439l3.747-0.248
		c1.096-0.073,1.945-0.974,1.986-2.047c1.744-0.217,3.471-0.448,5.172-0.698c-0.863,4.384-3.957,8.298-7.618,8.29h-7.833
		c-1.276,0-2.411-0.636-3.104-1.604c-0.528,1.728-2.14,2.99-4.033,2.99H64.79C63.084,75.424,61.607,74.398,60.945,72.934
		L60.945,72.934z M102.096,63.569c0.021-0.919-0.067-1.834-0.276-2.715c-4.751-17.697-16.479-15.59-18.815,2.596
		c-3.017-22.943-19.395-22.64-22.059,0.908c-2.662-23.548-19.043-23.854-22.057-0.906c-2.335-18.188-14.064-20.295-18.814-2.598
		c-0.212,0.881-0.299,1.796-0.277,2.715c1.838,0.273,3.702,0.528,5.591,0.764c0.274-0.937,1.175-1.595,2.186-1.526l3.747,0.249
		c1.124,0.073,1.994,1.021,1.989,2.136c1.769,0.164,3.548,0.313,5.341,0.442l0.018,0.001l0.088,0.008h0.003l0.091,0.007h0.01
		l0.082,0.006l0.021,0.003l0.071,0.005l0.03,0.002l0.062,0.005c2.049,0.146,4.109,0.271,6.187,0.377
		c0.175-1.028,1.091-1.807,2.163-1.773l4.887,0.146c1.094,0.032,1.975,0.892,2.063,1.954c2.173,0.045,4.35,0.067,6.527,0.067
		c2.177,0,4.354-0.022,6.525-0.067c0.088-1.063,0.969-1.922,2.063-1.954l4.887-0.146c1.072-0.031,1.989,0.745,2.164,1.773
		c2.074-0.104,4.138-0.229,6.186-0.377l0.063-0.005l0.031-0.002l0.07-0.005l0.021-0.003l0.083-0.006h0.009l0.091-0.007h0.004
		l0.088-0.008l0.018-0.001c1.793-0.132,3.575-0.278,5.341-0.442c-0.006-1.112,0.865-2.063,1.989-2.136l3.747-0.249
		c1.01-0.065,1.909,0.592,2.186,1.526C98.395,64.098,100.259,63.844,102.096,63.569z"/>
</g>
</svg>
