<?xml version="1.0" encoding="utf-8"?>
<!-- Generator: Adobe Illustrator 16.0.3, SVG Export Plug-In . SVG Version: 6.00 Build 0)  -->
<!DOCTYPE svg PUBLIC "-//W3C//DTD SVG 1.1//EN" "http://www.w3.org/Graphics/SVG/1.1/DTD/svg11.dtd">
<svg version="1.1" xmlns="http://www.w3.org/2000/svg" xmlns:xlink="http://www.w3.org/1999/xlink" x="0px" y="0px" width="64px"
	 height="64px" viewBox="0 0 64 64" enable-background="new 0 0 64 64" xml:space="preserve">
<g id="Layer_1">
	<g>
		<path fill="#FFFFFF" d="M46.625,31.432c0-5.913-3.516-10.994-8.564-13.299c-1.578-0.662-2.404,0.543-2.404,1.522v7.77
			c0,0.758,0.614,1.265,1.371,1.265h2.799c1.345,0,1.721,1.03,0.834,2.159l-7.05,8.984c-0.886,1.13-2.335,1.13-3.221,0l-7.05-8.984
			c-0.886-1.128-0.51-2.159,0.835-2.159h2.798c0.757,0,1.371-0.507,1.371-1.265v-7.77c0-1.009-1.375-1.958-2.516-1.472
			c-0.002,0.001-0.004-0.001-0.007,0c-3.94,1.846-6.922,5.397-7.996,9.707c-4.393,0.667-7.762,4.448-7.762,9.026
			c0,5.048,4.092,9.141,9.141,9.141h27.422c4.038,0,7.313-3.274,7.313-7.313S50.663,31.432,46.625,31.432z"/>
		<path fill="#FFFFFF" d="M31.992,32.016c0,0.015,0.014,0.041,0.016,0.058C31.997,31.914,31.992,31.867,31.992,32.016z"/>
		<path fill="#FFFFFF" d="M31.992,32.071c0.003-0.015,0.016-0.039,0.016-0.053C32.008,31.872,32.003,31.916,31.992,32.071z"/>
		<path fill="#4FC1E9" d="M32,2.75C15.846,2.75,2.75,15.846,2.75,32S15.846,61.25,32,61.25S61.25,48.154,61.25,32
			S48.154,2.75,32,2.75z M39.313,11.083c0,0.014-0.013,0.038-0.016,0.053C39.308,10.98,39.313,10.936,39.313,11.083z M24.704,11.141
			c-0.002-0.017-0.016-0.043-0.016-0.058C24.688,10.934,24.693,10.98,24.704,11.141z M46.625,44.797H19.203
			c-5.048,0-9.141-4.093-9.141-9.141c0-4.578,3.37-8.359,7.762-9.026c1.074-4.31,4.056-7.861,7.996-9.707
			c0.002-0.001,0.004,0.002,0.007,0c1.142-0.486,2.516,0.462,2.516,1.472v7.77c0,0.758-0.614,1.265-1.371,1.265h-2.798
			c-1.345,0-1.721,1.03-0.835,2.159l7.05,8.984c0.886,1.13,2.335,1.13,3.221,0l7.05-8.984c0.887-1.128,0.511-2.159-0.834-2.159
			h-2.799c-0.757,0-1.371-0.507-1.371-1.265v-7.77c0-0.979,0.826-2.184,2.404-1.522c5.049,2.305,8.564,7.386,8.564,13.299
			c4.038,0,7.313,3.274,7.313,7.313S50.663,44.797,46.625,44.797z"/>
	</g>
</g>
<g id="Layer_2">
</g>
</svg>
