<?xml version="1.0" encoding="utf-8"?>
<!-- Generator: Adobe Illustrator 16.0.3, SVG Export Plug-In . SVG Version: 6.00 Build 0)  -->
<!DOCTYPE svg PUBLIC "-//W3C//DTD SVG 1.1//EN" "http://www.w3.org/Graphics/SVG/1.1/DTD/svg11.dtd">
<svg version="1.1" id="Layer_1" xmlns="http://www.w3.org/2000/svg" xmlns:xlink="http://www.w3.org/1999/xlink" x="0px" y="0px"
	 width="121.891px" height="121.891px" viewBox="0 0 121.891 121.891" enable-background="new 0 0 121.891 121.891"
	 xml:space="preserve">
<g>
	<path fill="#2CABAF" d="M60.944,118.722c31.823,0,57.778-25.954,57.778-57.777c0-31.822-25.955-57.776-57.778-57.776
		c-31.82,0-57.775,25.954-57.775,57.776C3.168,92.768,29.123,118.722,60.944,118.722z"/>
	<path fill="#FAF5DC" d="M55.629,23.791H42.502c-0.783,0-1.418,0.635-1.418,1.417s0.635,1.417,1.418,1.417h13.127V23.791
		L55.629,23.791z M59.735,21.666h13.259c3.613,0,3.613,7.129,0,7.084H59.735c-0.699,0-1.271-0.571-1.271-1.271v-4.54
		C58.463,22.238,59.035,21.666,59.735,21.666L59.735,21.666z M56.85,55.449h12.127c1.498,0,2.646,1.23,2.726,2.725l2.195,41.595
		c0.079,1.495-1.228,2.724-2.725,2.724H54.653c-1.497,0-2.804-1.227-2.725-2.724l2.197-41.595
		C54.205,56.677,55.352,55.449,56.85,55.449L56.85,55.449z M72.565,31.584L70.474,52.82c-0.474-0.134-0.976-0.205-1.497-0.205H56.85
		c-0.317,0-0.629,0.026-0.931,0.078l4.208-21.109H72.565z"/>
</g>
</svg>
