<?xml version="1.0" encoding="utf-8"?>
<!-- Generator: Adobe Illustrator 16.0.4, SVG Export Plug-In . SVG Version: 6.00 Build 0)  -->
<!DOCTYPE svg PUBLIC "-//W3C//DTD SVG 1.1//EN" "http://www.w3.org/Graphics/SVG/1.1/DTD/svg11.dtd">
<svg version="1.1" id="Layer_1" xmlns="http://www.w3.org/2000/svg" xmlns:xlink="http://www.w3.org/1999/xlink" x="0px" y="0px"
	 width="264px" height="285px" viewBox="271.445 139.14 264 285" enable-background="new 271.445 139.14 264 285"
	 xml:space="preserve">
<g>
	<ellipse fill="#40959E" cx="426.846" cy="396.341" rx="71.915" ry="9.32"/>
	<path fill="#A0D0E1" d="M486.003,310.48c0,0-6.946,43.814,1.603,62.515c0,0,4.809,5.344,0,9.617c0,0-4.809,3.739-8.549-7.48
		c0,0-6.945-35.265-0.533-57.706L486.003,310.48z"/>
	<path fill="#FAFDFD" d="M309.537,337.324c0,0-31.98-168.453,55.87-183.613c0,0,31.049-2.702,50.623,22.471
		c0,0,14.182,20.367,45.129,19.524c0,0,50.266,3.59,55.037,53.939c0,0,2.643,51.646-97.548,125.596c0,0-29.895,28.065-49.132,15.271
		c0,0-6.401-7.57-0.758-16.395c0,0,11.626-16.726,0.962-21.7c0,0-16.396-10.707-24.633,5.312c0,0-5.181,14.386-19.485,12.296
		C325.6,370.025,314.433,369.4,309.537,337.324z"/>
	<path fill="#E7F3F1" d="M515.812,250.469c0,0,2.64,51.647-97.549,125.597c0,0-29.896,28.063-49.135,15.274
		c0,0-6.398-7.575-0.754-16.4c0,0,11.625-16.726,0.96-21.701c0,0-16.396-10.703-24.634,5.316c0,0-5.18,14.383-19.487,12.298
		c0,0-10.652-0.622-15.547-32.697C309.667,338.154,450.708,341.412,515.812,250.469z"/>
	<path fill="#D3EAEA" d="M512.333,268.239c0,0-10.16,44.703-94.608,108.65c0,0-29.896,28.065-49.133,15.27
		c0,0-6.401-7.568-0.758-16.394c0,0,11.627-16.728,0.962-21.702c0,0-16.23-10.645-24.466,5.374c0,0-1.257,10.513-16.166,11.887
		c0,0-12.41,5.586-17.309-26.484C310.855,344.839,427.677,374.068,512.333,268.239z"/>
	<path fill="#DCEFEE" d="M395.961,175.264c0,0,6.531-0.998,13.288,6.199c0,0,19.973,20.779,39.091,20.26
		c0,0,14.212-0.113,18.938,2.767c0,0,8.23,1.142,3.728,6.458c0,0-16.499,6.461-35.583-1.768c0,0-23.551-11.661-38.132-25.204
		C397.291,183.976,392.749,177.81,395.961,175.264z"/>
	<path fill="#A0D0E1" d="M307.465,226.658c0,0-20.722-13.86-5.762,95.675c0,0,0.535,4.809,5.877,4.273c0,0,4.809-2.137,3.74-6.945
		c0,0-14.215-64.661-5.237-83.892C306.084,235.768,306.931,230.932,307.465,226.658z"/>
	<path fill="#E7F3F1" d="M381.649,164.146c0,0-1.346,34.4,71.453,58.932c0,0,4.303-1.136,5.405,1.892c0,0,0.343,3.304-7.573,2.755
		c0,0-95.964-23.394-91.254-65.833c0,0,3.337-8.502,14.904-4.992C374.584,156.899,381.003,159.622,381.649,164.146z"/>
	<path fill="#E7F3F1" d="M468.936,224.177c0,0,25.504,0.583,22.336-12.841c0,0,1.205-2.582,4.889,1.652
		c0,0,17.521,16.347,10.917,45.33c0,0,0.104,3.82-4.922,6.506c0,0-2.752,1.858-8.329,3.029c0,0-8.57,3.547-10.738-1.237
		c0,0,2.854-26.332-18.111-37.997C464.978,228.618,459.504,224.178,468.936,224.177z"/>
	<polygon fill="#0D4C63" points="389.319,223.711 388.803,218.394 372.816,219.946 362.811,204.821 358.354,207.77 366.796,220.531 
		351.578,222.009 352.094,227.328 370.133,225.576 378.99,238.962 383.446,236.015 376.154,224.991 	"/>
	<polygon fill="#0D4C63" points="460.886,253.561 460.37,248.242 444.383,249.795 434.377,234.67 429.92,237.618 438.363,250.38 
		423.144,251.858 423.661,257.177 441.7,255.425 450.555,268.811 455.013,265.864 447.72,254.84 	"/>
	<path fill="#0D4C63" d="M352.086,259.693c0,0,7.261-14.301,32.149-4.459l22.274,10.392c0,0,23.242,10.842,17.24,27.5
		c0,0-1.258,2.066-3.194,1.162c0,0-2.066-1.257-1.212-4.986c0,0,1.822-7.7-9.3-16.721c0,0-20.4-11.876-29.681-14.731
		c0,0-16.785-6.357-24.047,3.521c0,0-1.355,2.905-3.647,2.131C352.669,263.503,349.666,262.986,352.086,259.693z"/>
	<path fill="#AF1F26" d="M418.324,273.792c0,0-19.771-15.12-21.626-8.616c0,0,3.763,19.739-6.855,33.652
		c0,0-3.649,6.552,6.504,10.699c0,0,19.306,11.069,29.083-7.364C425.429,302.163,432.174,286.442,418.324,273.792z M402.722,306.605
		c0,0-1.954,2.92-5.343,1.339c0,0-9.167-3.097-5.148-9.181c0,0,12.859-19.354,6.128-33.992c0,0,8.135,4.68,10.33,6.292
		C408.689,271.063,415.422,290.124,402.722,306.605z M407.032,311.269c0,0-4.18,0.112-1.678-4.617c0,0,11.649-15.495,5.934-32.312
		c0,0,3.761-2.374,8.586,3.711c0,0,10.767,9.15,3.538,24.646C423.412,302.697,419.492,312.365,407.032,311.269z"/>
	<g>
		<path fill="#8E1920" d="M397.348,308.925c-10.153-4.146-6.504-10.699-6.504-10.699c10.618-13.913,6.854-33.652,6.854-33.652
			c0.106-0.372,0.277-0.665,0.495-0.902c-0.735,0.205-1.26,0.679-1.496,1.503c0,0,3.763,19.739-6.855,33.652
			c0,0-3.649,6.552,6.504,10.699c0,0,12.217,6.99,22.136,0.574C408.761,315.456,397.348,308.925,397.348,308.925z"/>
	</g>
	<path fill="#BD2A3D" d="M411.263,274.319c0,0,3.758-2.373,8.587,3.711c0,0,11.119,9.207,3.536,24.645c0,0-3.919,10.47-16.38,9.373
		c0,0-4.179-0.688-1.68-5.416C405.327,306.632,416.275,291.377,411.263,274.319z"/>
	<path fill="#BD2A3D" d="M408.665,271.043c0,0,7.61,19.267-5.967,35.541c0,0-1.65,3.228-5.343,1.338c0,0-9.167-3.096-5.15-9.181
		c0,0,12.316-19.118,6.13-33.991C398.334,264.75,406.469,269.43,408.665,271.043z"/>
</g>
</svg>
