<?xml version="1.0" encoding="utf-8"?>
<!-- Generator: Adobe Illustrator 16.0.3, SVG Export Plug-In . SVG Version: 6.00 Build 0)  -->
<!DOCTYPE svg PUBLIC "-//W3C//DTD SVG 1.1//EN" "http://www.w3.org/Graphics/SVG/1.1/DTD/svg11.dtd">
<svg version="1.1" id="Layer_1" xmlns="http://www.w3.org/2000/svg" xmlns:xlink="http://www.w3.org/1999/xlink" x="0px" y="0px"
	 width="121.891px" height="121.891px" viewBox="0 0 121.891 121.891" enable-background="new 0 0 121.891 121.891"
	 xml:space="preserve">
<g>
	<path fill="#61AA45" d="M60.946,118.722c31.822,0,57.775-25.955,57.775-57.777S92.769,3.167,60.946,3.167
		c-31.822,0-57.776,25.956-57.776,57.778S29.124,118.722,60.946,118.722z"/>
	<path fill="#FAF5DC" d="M28.007,69.727h-3.07c-4.558,0.009-8.139-6.668-6.881-11.967c3.973-14.802,13.328-14.343,16.432-1.266
		C29.968,59.712,27.689,64.812,28.007,69.727L28.007,69.727z M58.577,67.159c0,2.104-1.722,3.825-3.826,3.825H41.611
		c-2.104,0-3.824-1.721-3.824-3.825C37.786,37.208,58.577,37.208,58.577,67.159L58.577,67.159z M76.87,86.691
		c0.633,0.321,1.405,0.068,1.729-0.563c0.321-0.632,0.07-1.405-0.563-1.729c-14.358-7.315-23.018-3.808-36.128-6.689
		c-8.905-1.956-10.338-9.216-6.852-14.2c0.088-1.473,0.23-2.868,0.421-4.19c-7.327,5.95-6.716,18.137,5.888,20.904
		C54.155,83.035,63.054,79.651,76.87,86.691L76.87,86.691z M61.21,62.199c-0.094-1.112-0.219-2.179-0.373-3.199
		c17.053,6.809,33.189,22.034,41.274,16.824c0.597-0.383,1.392-0.21,1.773,0.387c0.382,0.598,0.209,1.392-0.387,1.773
		C93.733,84.172,77.45,69.439,61.21,62.199L61.21,62.199z M82.296,67.159v0.031c-0.699-0.409-1.407-0.827-2.123-1.25
		c-5.522-3.26-11.478-6.774-17.623-9.309C66.763,37.764,82.296,41.27,82.296,67.159L82.296,67.159z M71.798,70.984H65.33
		c-2.104,0-3.825-1.721-3.825-3.825c0-0.58,0.01-1.146,0.024-1.703C64.962,67.079,68.415,69.02,71.798,70.984L71.798,70.984z
		 M85.089,66.265c0,1.903,1.557,3.462,3.461,3.462h7.109c4.558,0.009,8.14-6.668,6.881-11.967
		C97.741,39.881,85.089,44.269,85.089,66.265z"/>
</g>
</svg>
