<?xml version="1.0" encoding="utf-8"?>
<!-- Generator: Adobe Illustrator 16.0.3, SVG Export Plug-In . SVG Version: 6.00 Build 0)  -->
<!DOCTYPE svg PUBLIC "-//W3C//DTD SVG 1.1//EN" "http://www.w3.org/Graphics/SVG/1.1/DTD/svg11.dtd">
<svg version="1.1" id="Layer_1" xmlns="http://www.w3.org/2000/svg" xmlns:xlink="http://www.w3.org/1999/xlink" x="0px" y="0px"
	 width="121.891px" height="121.89px" viewBox="0 0 121.891 121.89" enable-background="new 0 0 121.891 121.89"
	 xml:space="preserve">
<g>
	<path fill-rule="evenodd" clip-rule="evenodd" fill="#72ACAE" d="M60.944,118.722c31.823,0,57.778-25.955,57.778-57.777
		S92.768,3.167,60.944,3.167c-31.821,0-57.776,25.955-57.776,57.777S29.123,118.722,60.944,118.722z"/>
	<path fill-rule="evenodd" clip-rule="evenodd" fill="#366673" d="M40.972,95.698l-3.203-33.223l-3.271-20.627l13.123,1.37
		l3.659,3.658l10.684-12.332L77.5,31.875l12.108,4.69L118.543,65.5c-2.259,28.729-25.688,51.665-54.622,53.146L40.972,95.698z"/>
	<path fill-rule="evenodd" clip-rule="evenodd" fill="#FAF5DC" d="M45.113,93.908c-2.454,4.725-5.485,2.242-6.264-3.987
		c-1.697-13.59-6.297-13.737-10.573-24.159c-2.781-6.781-2.955-20.344,0.696-24.516c3.65-4.173,10.966-2.974,15.474,0.347
		c0.807,0.595,1.617,0.998,2.416,1.259c0.352,0.101,0.61,0.227,0.753,0.359c0.15,0.163,0.068,0.437-0.146,0.56
		c-0.151,0.08-0.367,0.152-0.655,0.212c-2.169,0.321-4.568,0.203-6.354,0.02c-2.364-0.313-2.726-0.176-0.251,1.05
		c2.28,1.171,4.454,1.85,6.457,2.113c-0.408,2.044-0.575,4.145-0.482,6.257c0.146,3.348,0.933,6.712,2.425,9.91
		c1.025,2.2,2.329,4.197,3.851,5.97c-2.774,2.258-4.355,5.666-4.982,9.495C46.749,83.242,46.501,91.239,45.113,93.908L45.113,93.908
		z M78.336,77.125l3.252,8.349c2.686,6.032,13.209,0.969,10.227-4.812l-4.266-7.833c-1.356,0.993-2.824,1.867-4.396,2.6
		C81.582,76.161,79.969,76.723,78.336,77.125L78.336,77.125z M62.468,31.114c-5.842,2.724-10.025,7.559-12.069,13.173
		c-2.043,5.613-1.945,12.008,0.778,17.85c2.725,5.841,7.56,10.025,13.173,12.068c5.614,2.045,12.008,1.946,17.85-0.778
		c5.842-2.724,10.026-7.559,12.069-13.172c2.044-5.614,1.945-12.008-0.778-17.85s-7.559-10.026-13.173-12.069
		C74.704,28.292,68.31,28.389,62.468,31.114L62.468,31.114z M78.097,36.436c4.051,1.475,7.541,4.495,9.507,8.713
		c1.967,4.218,2.038,8.833,0.563,12.884s-4.495,7.541-8.713,9.507c-4.217,1.968-8.833,2.038-12.883,0.564
		c-4.052-1.475-7.542-4.497-9.508-8.713c-1.967-4.218-2.038-8.834-0.563-12.884c1.475-4.052,4.495-7.541,8.713-9.508
		C69.43,35.034,74.046,34.962,78.097,36.436L78.097,36.436z M67.276,39.198c1.13,0.431,2.146,1.101,2.975,2.048
		c3.651,4.172,3.478,17.734,0.695,24.516c-0.062,0.15-0.123,0.299-0.186,0.445c-1.104-0.126-2.188-0.383-3.227-0.761
		c-1.725-0.627-3.322-1.586-4.687-2.836c-1.301-1.192-2.404-2.675-3.215-4.415c-0.81-1.735-1.235-3.535-1.313-5.306
		c-0.082-1.855,0.211-3.698,0.838-5.419c0.627-1.725,1.586-3.322,2.835-4.687c1.192-1.301,2.675-2.403,4.415-3.215
		C66.696,39.435,66.985,39.311,67.276,39.198L67.276,39.198z M64.361,77.196c-0.327-0.105-0.652-0.216-0.975-0.334
		c-3.199-1.164-6.179-2.955-8.739-5.302c-0.273-0.251-0.542-0.507-0.806-0.77c-1.7,1.97-3.304,4.559-3.536,7.272
		c-0.161,2.105,0.837,3.119,1.481,5.141c0.995,3.224,0.647,7.883,2.323,10.704c2.719,4.577,5.485,2.242,6.264-3.987
		C61.172,83.526,62.613,80.108,64.361,77.196z"/>
</g>
</svg>
