<?xml version="1.0" encoding="utf-8"?>
<!-- Generator: Adobe Illustrator 16.0.3, SVG Export Plug-In . SVG Version: 6.00 Build 0)  -->
<!DOCTYPE svg PUBLIC "-//W3C//DTD SVG 1.1//EN" "http://www.w3.org/Graphics/SVG/1.1/DTD/svg11.dtd">
<svg version="1.1" id="Layer_1" xmlns="http://www.w3.org/2000/svg" xmlns:xlink="http://www.w3.org/1999/xlink" x="0px" y="0px"
	 width="121.891px" height="121.891px" viewBox="0 0 121.891 121.891" enable-background="new 0 0 121.891 121.891"
	 xml:space="preserve">
<g>
	<path fill="#5A88B8" d="M60.945,118.722c31.823,0,57.777-25.955,57.777-57.778c0-31.822-25.954-57.776-57.777-57.776
		c-31.821,0-57.775,25.954-57.775,57.776C3.169,92.767,29.123,118.722,60.945,118.722z"/>
	<path fill="#FAF5DC" d="M49.925,89.837l3.829,1.047c0.403,0.109,0.641,0.546,0.533,0.938l-0.406,1.482
		c-0.106,0.393-0.536,0.645-0.937,0.534l-3.827-1.047c-0.396-0.108-0.646-0.533-0.535-0.938l0.405-1.484
		C49.099,89.966,49.52,89.726,49.925,89.837L49.925,89.837z M70.754,21.212c6.564,1.797,11.604,4.293,11.252,5.576
		c-0.353,1.284-5.959,0.868-12.523-0.928c-6.565-1.796-11.604-4.293-11.252-5.576C58.58,19.001,64.188,19.417,70.754,21.212
		L70.754,21.212z M52.391,88.339l-3.555-0.971c-0.195-2.459-1.142-4.313-2.142-6.686c-1.232-3.216-0.227-6.277,0.234-8.158
		l1.234-4.521l2.838,0.777c1.039,0.281,2.11-0.332,2.393-1.371s-0.332-2.111-1.371-2.393l-2.83-0.775l1.616-5.911l5.827,1.594
		c1.039,0.282,2.11-0.332,2.393-1.37c0.281-1.039-0.332-2.11-1.37-2.394l-5.819-1.592l1.616-5.912l2.838,0.776
		c1.039,0.281,2.11-0.331,2.393-1.37c0.282-1.04-0.331-2.112-1.371-2.395l-2.83-0.773l1.249-4.568
		c0.055-0.189,0.122-0.37,0.206-0.54c-3.66-1.679-5.874-3.379-5.559-4.528c0.521-1.911,7.831-1.577,16.324,0.745
		c8.492,2.323,14.953,5.758,14.43,7.668c-0.314,1.149-3.084,1.487-7.09,1.068c-0.016,0.188-0.047,0.378-0.098,0.569l-8.805,32.195
		c-0.561,1.854-1.253,5.002-3.952,7.144c-2.066,1.531-3.825,2.646-5.245,4.662L52.391,88.339L52.391,88.339z M74.58,29.378
		c-1.75-0.295-3.693-0.723-5.711-1.274c-2.021-0.553-3.91-1.173-5.565-1.811l-1.688,6.163c1.804,0.33,3.727,0.768,5.702,1.308
		c1.976,0.541,3.854,1.144,5.573,1.776L74.58,29.378L74.58,29.378z M51.201,96.332c0.262-0.963-1.479-1.436-1.739-0.473
		l-2.421,8.836c-0.282,1.039,1.455,1.518,1.738,0.473L51.201,96.332z"/>
</g>
</svg>
