<?xml version="1.0" encoding="utf-8"?>
<!-- Generator: Adobe Illustrator 16.0.3, SVG Export Plug-In . SVG Version: 6.00 Build 0)  -->
<!DOCTYPE svg PUBLIC "-//W3C//DTD SVG 1.1//EN" "http://www.w3.org/Graphics/SVG/1.1/DTD/svg11.dtd">
<svg version="1.1" id="Layer_1" xmlns="http://www.w3.org/2000/svg" xmlns:xlink="http://www.w3.org/1999/xlink" x="0px" y="0px"
	 width="121.891px" height="121.891px" viewBox="0 0 121.891 121.891" enable-background="new 0 0 121.891 121.891"
	 xml:space="preserve">
<g>
	<path fill="#E2B723" d="M60.945,118.722c31.822,0,57.776-25.955,57.776-57.777S92.768,3.167,60.945,3.167
		c-31.822,0-57.776,25.956-57.776,57.778S29.123,118.722,60.945,118.722z"/>
	<path fill="#FAF5DC" d="M64.715,56.68c0-1.063-0.861-1.925-1.924-1.925c-1.063,0-1.924,0.861-1.924,1.925v16.628h3.848V56.68
		L64.715,56.68z M66.992,33.003c2.889,28.99-22.505,15.165-36.005,19.804C28.1,23.817,53.492,37.642,66.992,33.003L66.992,33.003z
		 M33.684,76.267h39.324c0.161,0,0.32,0.008,0.479,0.021l0.243,0.001c3.598,0.021,11.526,0.067,15.811-4.532
		c1.941-2.088,5.21-2.206,7.297-0.263c2.089,1.941,2.206,5.21,0.264,7.297c-7.356,7.902-18.401,7.838-23.41,7.809l-0.245-0.001
		c-0.144,0.013-0.29,0.019-0.437,0.019H33.684c-2.856,0-5.175-2.316-5.175-5.175C28.509,78.584,30.826,76.267,33.684,76.267
		L33.684,76.267z M37.113,56.68c0-1.063-0.86-1.925-1.924-1.925c-1.063,0-1.924,0.861-1.924,1.925v16.639
		c0.139-0.007,0.278-0.011,0.418-0.011h3.43V56.68L37.113,56.68z M44.014,59.314c0-1.063-0.861-1.924-1.924-1.924
		c-1.063,0-1.924,0.86-1.924,1.924v13.994h3.848V59.314L44.014,59.314z M50.914,56.68c0-1.063-0.861-1.925-1.924-1.925
		c-1.063,0-1.925,0.861-1.925,1.925v16.628h3.849V56.68L50.914,56.68z M57.814,59.314c0-1.063-0.86-1.924-1.924-1.924
		c-1.063,0-1.924,0.86-1.924,1.924v13.994h3.848V59.314z"/>
</g>
</svg>
