<?xml version="1.0" encoding="utf-8"?>
<!-- Generator: Adobe Illustrator 16.0.3, SVG Export Plug-In . SVG Version: 6.00 Build 0)  -->
<!DOCTYPE svg PUBLIC "-//W3C//DTD SVG 1.1//EN" "http://www.w3.org/Graphics/SVG/1.1/DTD/svg11.dtd">
<svg version="1.1" id="Layer_1" xmlns="http://www.w3.org/2000/svg" xmlns:xlink="http://www.w3.org/1999/xlink" x="0px" y="0px"
	 width="121.891px" height="121.891px" viewBox="0 0 121.891 121.891" enable-background="new 0 0 121.891 121.891"
	 xml:space="preserve">
<g>
	<path fill="#D31F26" d="M60.944,118.722c31.823,0,57.778-25.954,57.778-57.777c0-31.822-25.955-57.776-57.778-57.776
		c-31.82,0-57.775,25.954-57.775,57.776C3.168,92.768,29.123,118.722,60.944,118.722z"/>
	<path fill="#FAF5DC" d="M68.959,48.792c-6.639,15.956-14.234,35.186-10.751,51.446c0.317,1.739-2.46,2.292-2.915,0.458
		c-4.379-20.453,1.248-36.729,8.704-55.07C65.263,47.19,67.003,48.307,68.959,48.792L68.959,48.792z M39.828,37.438v10.12
		c0.454-0.116,0.929-0.179,1.417-0.179c0.487,0,0.963,0.063,1.417,0.179V37.71l-0.237,0.002
		C41.484,37.712,40.619,37.616,39.828,37.438L39.828,37.438z M44.49,21.307c9.7,0,7.637,13.57-2.065,13.57
		C32.724,34.878,34.789,21.307,44.49,21.307L44.49,21.307z M44.195,53.164c0-1.629-1.32-2.949-2.949-2.949s-2.95,1.32-2.95,2.949
		v46.17c0,1.629,1.321,2.95,2.95,2.95s2.949-1.321,2.949-2.95V53.164L44.195,53.164z M71.19,33.403
		c-3.541,0-6.412,2.871-6.412,6.412c0,3.542,2.871,6.413,6.412,6.413c3.542,0,6.412-2.871,6.412-6.413
		C77.603,36.274,74.732,33.403,71.19,33.403L71.19,33.403z M70.032,37.155l3.818,3.818c0.415,0.415,0.415,1.088,0,1.503
		s-1.088,0.415-1.503,0l-3.819-3.818c-0.415-0.415-0.415-1.088,0-1.503S69.617,36.74,70.032,37.155L70.032,37.155z M73.857,23.52
		c-0.473-1.813,1.696-2.566,2.474-0.606c0.952,2.359,1.724,6.63,1.54,10.518c-0.749-0.867-2.097-1.718-3.133-2.15
		C74.868,28.473,74.439,25.536,73.857,23.52L73.857,23.52z M68.523,23.52c-0.582,2.015-1.011,4.95-0.881,7.755
		c-1.25,0.52-2.224,1.229-3.132,2.159c-0.184-3.888,0.588-8.16,1.541-10.521C66.827,20.953,68.997,21.708,68.523,23.52L68.523,23.52
		z M73.421,48.789c1.935-0.482,3.708-1.612,4.963-3.163c7.457,18.343,13.083,34.617,8.704,55.07
		c-0.455,1.834-3.232,1.281-2.915-0.458C87.656,83.977,80.059,64.747,73.421,48.789z"/>
</g>
</svg>
