<?xml version="1.0" encoding="utf-8"?>
<!-- Generator: Adobe Illustrator 16.0.3, SVG Export Plug-In . SVG Version: 6.00 Build 0)  -->
<!DOCTYPE svg PUBLIC "-//W3C//DTD SVG 1.1//EN" "http://www.w3.org/Graphics/SVG/1.1/DTD/svg11.dtd">
<svg version="1.1" id="Layer_1" xmlns="http://www.w3.org/2000/svg" xmlns:xlink="http://www.w3.org/1999/xlink" x="0px" y="0px"
	 width="121.891px" height="121.89px" viewBox="0 0 121.891 121.89" enable-background="new 0 0 121.891 121.89"
	 xml:space="preserve">
<g>
	<path fill-rule="evenodd" clip-rule="evenodd" fill="#5A8770" d="M60.945,118.721c31.823,0,57.777-25.953,57.777-57.776
		c0-31.822-25.954-57.776-57.777-57.776c-31.822,0-57.776,25.954-57.776,57.776C3.169,92.768,29.123,118.721,60.945,118.721z"/>
	<path fill-rule="evenodd" clip-rule="evenodd" fill="#3E5C4C" d="M58.883,35.592l7.137,7.137l16.443-9.282l35.676,35.675
		c-3.193,22.373-19.282,40.683-40.457,47.118l-25.75-25.75l-3.046-38.089l-5.906-17.688L58.883,35.592z"/>
	<path fill-rule="evenodd" clip-rule="evenodd" fill="#FAF5DC" d="M56.24,88.594c-2.568,4.941-5.738,2.346-6.553-4.171
		c-1.774-14.215-6.586-14.369-11.059-25.271c-2.91-7.094-3.092-21.279,0.727-25.645c3.82-4.364,11.472-3.109,16.188,0.364
		c0.844,0.621,1.691,1.043,2.525,1.316c1.136,0.324,1.338,0.895-0.05,1.183c-2.269,0.336-4.778,0.213-6.646,0.021
		c-2.473-0.328-2.851-0.185-0.262,1.098c8.962,4.601,16.359,1.95,18.537-3.795c0.585-1.603,1.212-2.151,2.284-2.458
		c3.908-1.032,8.086-0.605,10.604,2.271c3.818,4.365,3.637,18.551,0.727,25.645c-4.473,10.901-9.284,11.056-11.059,25.271
		c-0.814,6.517-3.709,8.959-6.553,4.171c-1.752-2.95-1.389-7.824-2.43-11.196c-0.674-2.115-1.719-3.175-1.549-5.377
		c0.382-4.48,4.34-8.637,6.628-10.431c1.115-0.941,2.378-1.822-0.394-0.907c-5.441,1.818-8.282,6.535-9.194,12.104
		C57.951,77.437,57.691,85.802,56.24,88.594z"/>
</g>
</svg>
